<?xml version="1.0" encoding="utf-8" ?>
<svg baseProfile="full" height="512" version="1.1" width="512" xmlns="http://www.w3.org/2000/svg" xmlns:ev="http://www.w3.org/2001/xml-events" xmlns:xlink="http://www.w3.org/1999/xlink"><defs /><polygon fill="white" points="168.0,0.0 167.0,1.0 160.0,1.0 159.0,2.0 153.0,2.0 152.0,3.0 147.0,3.0 146.0,4.0 143.0,4.0 142.0,5.0 139.0,5.0 138.0,6.0 135.0,6.0 134.0,7.0 132.0,7.0 131.0,8.0 128.0,8.0 127.0,9.0 126.0,9.0 125.0,10.0 123.0,10.0 122.0,11.0 120.0,11.0 119.0,12.0 117.0,12.0 116.0,13.0 115.0,13.0 114.0,14.0 112.0,14.0 111.0,15.0 110.0,15.0 109.0,16.0 108.0,16.0 107.0,17.0 106.0,17.0 105.0,18.0 104.0,18.0 103.0,19.0 102.0,19.0 101.0,20.0 100.0,20.0 99.0,21.0 98.0,21.0 97.0,22.0 96.0,22.0 95.0,23.0 94.0,23.0 93.0,24.0 92.0,24.0 90.0,26.0 89.0,26.0 88.0,27.0 87.0,27.0 85.0,29.0 84.0,29.0 82.0,31.0 81.0,31.0 79.0,33.0 78.0,33.0 75.0,36.0 74.0,36.0 71.0,39.0 70.0,39.0 67.0,42.0 66.0,42.0 57.0,51.0 56.0,51.0 51.0,56.0 51.0,57.0 42.0,66.0 42.0,67.0 39.0,70.0 39.0,71.0 36.0,74.0 36.0,75.0 33.0,78.0 33.0,79.0 31.0,81.0 31.0,82.0 29.0,84.0 29.0,85.0 27.0,87.0 27.0,88.0 26.0,89.0 26.0,90.0 24.0,92.0 24.0,93.0 23.0,94.0 23.0,95.0 22.0,96.0 22.0,97.0 21.0,98.0 21.0,99.0 20.0,100.0 20.0,101.0 19.0,102.0 19.0,103.0 18.0,104.0 18.0,105.0 17.0,106.0 17.0,107.0 16.0,108.0 16.0,109.0 15.0,110.0 15.0,111.0 14.0,112.0 14.0,114.0 13.0,115.0 13.0,116.0 12.0,117.0 12.0,119.0 11.0,120.0 11.0,122.0 10.0,123.0 10.0,124.0 9.0,125.0 9.0,127.0 8.0,128.0 8.0,130.0 7.0,131.0 7.0,134.0 6.0,135.0 6.0,138.0 5.0,139.0 5.0,142.0 4.0,143.0 4.0,146.0 3.0,147.0 3.0,152.0 2.0,153.0 2.0,158.0 1.0,159.0 1.0,165.0 0.0,166.0 0.0,345.0 1.0,346.0 1.0,352.0 2.0,353.0 2.0,358.0 3.0,359.0 3.0,364.0 4.0,365.0 4.0,368.0 5.0,369.0 5.0,372.0 6.0,373.0 6.0,376.0 7.0,377.0 7.0,380.0 8.0,381.0 8.0,383.0 9.0,384.0 9.0,386.0 10.0,387.0 10.0,388.0 11.0,389.0 11.0,391.0 12.0,392.0 12.0,394.0 13.0,395.0 13.0,397.0 14.0,398.0 14.0,399.0 15.0,400.0 15.0,401.0 16.0,402.0 16.0,403.0 17.0,404.0 17.0,405.0 18.0,406.0 18.0,407.0 19.0,408.0 19.0,409.0 20.0,410.0 20.0,411.0 21.0,412.0 21.0,414.0 23.0,416.0 23.0,417.0 24.0,418.0 24.0,419.0 26.0,421.0 26.0,422.0 27.0,423.0 27.0,424.0 29.0,426.0 29.0,427.0 31.0,429.0 31.0,430.0 33.0,432.0 33.0,433.0 36.0,436.0 36.0,437.0 39.0,440.0 39.0,441.0 42.0,444.0 42.0,445.0 51.0,454.0 51.0,455.0 56.0,460.0 57.0,460.0 66.0,469.0 67.0,469.0 70.0,472.0 71.0,472.0 74.0,475.0 75.0,475.0 78.0,478.0 79.0,478.0 81.0,480.0 82.0,480.0 84.0,482.0 85.0,482.0 87.0,484.0 88.0,484.0 89.0,485.0 90.0,485.0 92.0,487.0 93.0,487.0 94.0,488.0 95.0,488.0 96.0,489.0 97.0,489.0 98.0,490.0 99.0,490.0 100.0,491.0 101.0,491.0 102.0,492.0 103.0,492.0 104.0,493.0 105.0,493.0 106.0,494.0 107.0,494.0 108.0,495.0 109.0,495.0 110.0,496.0 111.0,496.0 112.0,497.0 114.0,497.0 115.0,498.0 116.0,498.0 117.0,499.0 119.0,499.0 120.0,500.0 122.0,500.0 123.0,501.0 125.0,501.0 126.0,502.0 127.0,502.0 128.0,503.0 131.0,503.0 132.0,504.0 134.0,504.0 135.0,505.0 138.0,505.0 139.0,506.0 142.0,506.0 143.0,507.0 146.0,507.0 147.0,508.0 152.0,508.0 153.0,509.0 159.0,509.0 160.0,510.0 167.0,510.0 168.0,511.0 343.0,511.0 344.0,510.0 351.0,510.0 352.0,509.0 358.0,509.0 359.0,508.0 364.0,508.0 365.0,507.0 368.0,507.0 369.0,506.0 372.0,506.0 373.0,505.0 375.0,505.0 376.0,504.0 379.0,504.0 380.0,503.0 383.0,503.0 384.0,502.0 385.0,502.0 386.0,501.0 388.0,501.0 389.0,500.0 391.0,500.0 392.0,499.0 394.0,499.0 395.0,498.0 396.0,498.0 397.0,497.0 399.0,497.0 400.0,496.0 401.0,496.0 402.0,495.0 403.0,495.0 404.0,494.0 405.0,494.0 406.0,493.0 407.0,493.0 408.0,492.0 409.0,492.0 410.0,491.0 411.0,491.0 412.0,490.0 413.0,490.0 414.0,489.0 415.0,489.0 416.0,488.0 417.0,488.0 418.0,487.0 419.0,487.0 421.0,485.0 422.0,485.0 424.0,483.0 425.0,483.0 426.0,482.0 427.0,482.0 429.0,480.0 430.0,480.0 432.0,478.0 433.0,478.0 436.0,475.0 437.0,475.0 440.0,472.0 441.0,472.0 444.0,469.0 445.0,469.0 454.0,460.0 455.0,460.0 460.0,455.0 460.0,454.0 469.0,445.0 469.0,444.0 472.0,441.0 472.0,440.0 475.0,437.0 475.0,436.0 478.0,433.0 478.0,432.0 481.0,429.0 481.0,428.0 482.0,427.0 482.0,426.0 484.0,424.0 484.0,423.0 485.0,422.0 485.0,421.0 487.0,419.0 487.0,418.0 488.0,417.0 488.0,416.0 490.0,414.0 490.0,412.0 491.0,411.0 491.0,410.0 492.0,409.0 492.0,408.0 493.0,407.0 493.0,406.0 494.0,405.0 494.0,404.0 495.0,403.0 495.0,402.0 496.0,401.0 496.0,400.0 497.0,399.0 497.0,398.0 498.0,397.0 498.0,395.0 499.0,394.0 499.0,392.0 500.0,391.0 500.0,389.0 501.0,388.0 501.0,387.0 502.0,386.0 502.0,384.0 503.0,383.0 503.0,381.0 504.0,380.0 504.0,377.0 505.0,376.0 505.0,373.0 506.0,372.0 506.0,369.0 507.0,368.0 507.0,365.0 508.0,364.0 508.0,359.0 509.0,358.0 509.0,353.0 510.0,352.0 510.0,346.0 511.0,345.0 511.0,166.0 510.0,165.0 510.0,159.0 509.0,158.0 509.0,153.0 508.0,152.0 508.0,147.0 507.0,146.0 507.0,143.0 506.0,142.0 506.0,139.0 505.0,138.0 505.0,135.0 504.0,134.0 504.0,131.0 503.0,130.0 503.0,128.0 502.0,127.0 502.0,125.0 501.0,124.0 501.0,123.0 500.0,122.0 500.0,120.0 499.0,119.0 499.0,117.0 498.0,116.0 498.0,114.0 497.0,113.0 497.0,112.0 496.0,111.0 496.0,110.0 495.0,109.0 495.0,108.0 494.0,107.0 494.0,106.0 493.0,105.0 493.0,104.0 492.0,103.0 492.0,102.0 491.0,101.0 491.0,100.0 490.0,99.0 490.0,98.0 489.0,97.0 489.0,96.0 488.0,95.0 488.0,94.0 487.0,93.0 487.0,92.0 485.0,90.0 485.0,89.0 484.0,88.0 484.0,87.0 482.0,85.0 482.0,84.0 480.0,82.0 480.0,81.0 478.0,79.0 478.0,78.0 475.0,75.0 475.0,74.0 472.0,71.0 472.0,70.0 469.0,67.0 469.0,66.0 460.0,57.0 460.0,56.0 455.0,51.0 454.0,51.0 445.0,42.0 444.0,42.0 441.0,39.0 440.0,39.0 437.0,36.0 436.0,36.0 433.0,33.0 432.0,33.0 430.0,31.0 429.0,31.0 427.0,29.0 426.0,29.0 424.0,27.0 423.0,27.0 422.0,26.0 421.0,26.0 419.0,24.0 418.0,24.0 417.0,23.0 416.0,23.0 415.0,22.0 414.0,22.0 413.0,21.0 412.0,21.0 411.0,20.0 410.0,20.0 409.0,19.0 408.0,19.0 407.0,18.0 406.0,18.0 405.0,17.0 404.0,17.0 403.0,16.0 402.0,16.0 401.0,15.0 400.0,15.0 399.0,14.0 397.0,14.0 396.0,13.0 395.0,13.0 394.0,12.0 392.0,12.0 391.0,11.0 389.0,11.0 388.0,10.0 386.0,10.0 385.0,9.0 384.0,9.0 383.0,8.0 380.0,8.0 379.0,7.0 376.0,7.0 375.0,6.0 373.0,6.0 372.0,5.0 369.0,5.0 368.0,4.0 365.0,4.0 364.0,3.0 359.0,3.0 358.0,2.0 352.0,2.0 351.0,1.0 344.0,1.0 343.0,0.0" /></svg>